<svg id="a" xmlns="http://www.w3.org/2000/svg" viewBox="0 0 1290.64 818.19">
  <path fill="#000000" d="M320.2,635.2c.2,17.9,0,20.8-1.3,20.8-.8,0-7-5.5-13.7-12.1-6.8-6.6-12.6-12-13-12-.5,0-.8.8-.8,1.8v12.3c-.1,2.4-.3,5.4-.5,6.5-.2,1.1-.4,2.3-.4,2.7-.1.4-1.8.6-7.6.3l-.2-18.5c0-10.2.1-19.1.3-19.8s1.3-1.2,2.4-1.2c1.2,0,6.7,4.6,14,12,6.6,6.6,12.2,12,12.5,12s.5-5.2.5-11.5.3-12.2.6-13.1c.5-1,1.7-1.4,6.9-.9l.3,20.7ZM381.1,614c-1.3,0-3.9,1.4-5.8,3.2-1.9,1.8-4.3,4.5-5.2,6s-2.4,2.8-3.2,2.8-2.1-.6-2.8-1.3-2.4-2.8-3.7-4.7c-1.3-2-3.1-4.1-4-4.8-.8-.6-2.9-1.2-4.6-1.2-2.3,0-3.1.4-3.1,1.7,0,1,.8,2.4,1.8,3.3,1,.8,1.8,1.9,1.8,2.5.1.5,1.9,3,4.1,5.5,2.2,2.4,4,5,4,5.7s.5,1.3,1,1.3c.6,0,1,4.3,1,11v11h8c0-16.9.4-19.8,1.8-22.3,1-1.8,3.5-5.5,5.6-8.2,2-2.8,4.4-5.8,5.2-6.8s1.2-2.4.9-3.2c-.3-.9-1.5-1.5-2.8-1.5ZM481.1,572c-3.1-6.5-3.5-8.1-2.9-11.89.82-5.22,3.33-9.78,4.1-15.16.18-1.29.08-2.63.53-3.85.22-.59.55-1.13.81-1.7.38-.85.58-1.78.78-2.69,1.03-4.61,2-9.6,3.98-13.91,1.1-2.4,2-4.9,2-5.5,0-.7.8-1.5,1.7-1.8,1-.2,5.2-3.8,9.3-7.9l7.5-7.4s30.7-.1,30.7-.1c2.76,0,29.56-2.4,30.7,1.47.18.62.12,1.31.41,1.88.27.52.78.85,1.2,1.25,1.98,1.91,2.18,5.22,3.45,7.57,1.58,2.95,3.05,4.79,3.05,8.52,0,1.7-.5,3.2-1,3.2s-1,1.39-1,2.98c-.02,7.55-4.63,16.42-6.46,23.79-.43,1.71-.87,3.42-1.33,5.12-1.78,6.58-6.2,10.99-11.01,15.61-4.8,4.7-9.3,8.6-10,8.5-.6,0-1.2.5-1.2,1,0,.6-10.5,1-29.5,1-22.2,0-29.8-.3-30.8-1.2-.7-.7-3-4.7-5-8.8ZM498.6,561.1s.3,2.5.3,2.5c10.89.11,21.78.24,32.67.15,4.28-.04,13.23,1.42,14.6-3.62,1.85-6.82,3.71-13.64,5.56-20.46,1.58-5.83,4.67-12.51,4.67-18.57v-3c0-.12-33.75.12-38.29.32-5.7.25-7.59,2.5-8.98,7.64-1.71,6.33-3.41,12.71-5.92,18.77-2.11,5.09-5.43,10.53-4.61,16.26ZM514.9,655.5c1.3-.5,1.5-3.5,1.5-19.5s-.3-19.3-1.5-20.5c-.8-.9-2.3-1.5-3.3-1.5s-2.2.3-2.7.6h0c-.5.4-.8,5.8-.7,12,.2,10.2,0,11.4-1.5,11.3-1,0-6.9-5.2-13-11.5-7.2-7.2-11.9-11.3-13-11.2-1.6.3-1.8,2.1-2,20.5l-.3,20.3h8c.4-18.4.9-23.5,1.5-23.7.5-.2,4.9,3.5,9.8,8.2,4.8,4.6,8.7,9.1,8.7,10,0,.8.8,1.5,1.8,1.5.9,0,2.5.9,3.5,2,.9,1.1,2.4,1.7,3.2,1.5ZM655.7,669.5c-.7.8-1.29,1.99-1.3,2.69-.02,3.04-6.69,10.67-8.3,13.28-3.94,6.36-8.08,12.59-12.43,18.67-8.69,12.17-18.18,23.78-28.38,34.71-9.53,10.21-20.02,20.05-32.93,25.36s-28.8,5.3-39.88-3.2c-6.06-4.65-9.96-11.24-12.65-18.29-1.91-5-2.63-19.07-6.76-21.08-.79,4.23-.39,8.97-.27,13.36.54,19.22.9,39.02,9.96,56.54,8,15.47,24.16,27.94,41.52,26.55,9.06-.73,17.43-5.03,25.12-9.87,39.5-24.82,73.53-68,94.29-109.52.6-1.2,1.7-2.7,2.2-3.3.5-.7,3.5-1.5,6.5-1.9s18.2-.9,33.81-1.1c161.04-2.72,321.78-14.21,482.69-20.3,13.2-.5,31.5-1.3,40.8-1.8,9.2-.5,16.7-1.2,16.7-1.6s-137.1-.7-304.7-.7c-266.1,0-305,.2-306,1.5ZM659,623.79c.15-.03.29-.06.44-.08,4.18-.73,12.53,2.44,15.77-1.01,1.5-1.6,1.6-2,.2-4.3-1.14-1.88-2.75-2.11-4.73-2.47-2.43-.45-4.83-1.38-7.31-1.52-3.46-.19-9.39-.06-11.9,2.73-.77.85-1.29,1.94-2.22,2.62-2.46,1.79-3.78,2.02-5.1,5.04-1.09,2.49-1.63,5.31-1.88,8.01-.48,5.26.72,10.71,3.64,15.14,1.25,1.9,2.8,3.63,4.66,4.94,6.51,4.58,18.9,4.7,24.86-.8,1.3-1.2,1.3-1.6,0-3.8-1.2-2-2-2.4-4-1.8-3.23.97-6.73,1.69-10.12,1.51-3.09-.16-5.59-1.77-8.01-3.55-3.02-2.21-2.71-3.93-2.94-7.51-.18-2.74-.19-5.62,1.1-8.04,1.48-2.78,4.48-4.48,7.57-5.12ZM577.46,558.52c-1.23,4.21-2.46,8.43-3.68,12.65-.9,3.13-1.96,6.26-2.69,9.44-.33,1.42-.39,6.13-1.68,6.9-.5.2-1,2.3-1,4.51,0,4.84,1.24,2.16,4.1,1.9.48-.04,1,0,1.39-.28.37-.27.5-.76.81-1.09.59-.62,1.6-.5,2.42-.77,1.03-.34,1.71-1.3,2.52-2.02,3.59-3.22,8.27-3.42,11.36-7.59s2.77-9.59,4.56-14.49c.81-2.21,2.39-4.15,2.7-6.49.19-1.4-.08-2.89.5-4.17.55-1.21,1.81-2.1,1.97-3.42.08-.61-.1-1.23-.08-1.84.13-3.37,37.73-.18,37.73-2.75,0-.6.7-1,1.5-1s3.2-1.7,5.2-3.8c2.1-2.1,5.3-4.8,7-6,1.8-1.2,3.3-2.7,3.3-3.2,0-.7-8-1-22-1-17.8,0-22.5-.3-24.5-1.5-1.4-.9-2.5-2.2-2.5-3,0-.9.5-1.5,1-1.5s1-1.2,1-2.5c0-1.4.6-3.7,1.2-5.1l1.3-2.5,46.5.1c7.7-7.8,10.3-10,10.7-10,.5,0,1.6-.8,2.5-1.8s2.4-2.3,3.2-3c.9-.7,1.6-1.7,1.6-2.2,0-.7-14.2-1-40.5-1-39.74,0-40.5,0-40.5,1.99,0,3.16-2.24,6.43-3.14,9.42-1.45,4.82-2.83,9.66-4.25,14.49-2.75,9.38-5.5,18.76-8.25,28.14-.44,1.49-.87,2.98-1.31,4.47ZM255.5,651.2c.5,1,.9,2.4.9,3.3,0,1-1.1,1.5-3.7,1.5-3.2,0-4.1-.5-7.3-6h-9.5c-8.4,0-9.5.2-9.5,1.7,0,1-.5,2.3-1.2,3s-2.9,1.3-5,1.3c-3.1,0-3.8-.4-3.8-2,0-1.1.5-2,1-2s1-1.2,1-2.5c0-1.4.5-2.8,1-3,.5-.3,1-1.4,1-2.5s.5-2,1-2,1-.9,1-2,.4-2.8.9-3.8,1.9-3.9,3-6.5c1.2-2.6,2-5.4,1.9-6.3-.2-.8,1-3.3,2.6-5.5,2.1-2.9,3.5-3.9,5.5-3.9,1.4,0,3.4.6,4.3,1.2,1,.7,1.7,2,1.8,3,0,1,.5,2,1,2.3.5.2,1,1.4,1,2.5s.4,2.7.8,3.7c.5,1,1.4,2.8,2,4,.7,1.2,1.2,2.9,1.2,3.8,0,.8.5,1.5,1,1.5s1,.9,1,2,.4,2.7.9,3.7,1.4,3.1,2.1,4.8c.7,1.6,1.6,3.7,2.1,4.7ZM242.4,640.5c0-.8-.4-2.3-.9-3.2-.4-1-1.2-2.8-1.8-4-.5-1.3-1-3-1.1-3.8s-.6-1.5-1-1.5c-.4.1-1.3.7-2,1.5h0c-.7.8-1.2,2.1-1.2,2.8,0,.6-.4,1.7-.9,2.2-.5.6-1,1.9-1.2,3-.1,1.1-.1,2.6,0,3.3,0,.8,1.8,1.2,5.1,1.2,3.8,0,5-.4,5-1.5ZM564.4,622c9.9,0,10-.1,10.5-2.5.3-1.4-.1-3.2-.7-4.1-1.1-1.2-3.8-1.5-14.3-1.5-8.7,0-13.6.5-14.5,1.3-1.1.9-1.4,4.8-1.2,19.5.1,10,.4,18.9.7,19.8.4,1.2,3,1.5,14.8,1.5s14.4-.2,15.5-1.5c.7-1,.9-2.2.3-3.3-.4-1-1.6-2.1-2.5-2.5s-5.5-.7-10.3-.7-9.1-.3-9.5-.8c-.4-.4-.2-2.1.3-3.7.5-1.7,1.5-3.3,2.2-3.7.6-.4,4.2-1,8-1.3,6.7-.5,6.7-.6,6.7-3.5v-3c-15.3-.5-15.4-.6-16.2-3.5-.4-1.7-.6-3.8-.3-4.8.4-1.5,1.8-1.7,10.5-1.7ZM452.55,635c.07,6.25-2.85,12.47-7.7,16.41-6.29,5.13-16.98,6.64-24.16,2.39-7.22-4.12-11.26-12.04-10.41-20.49.7-7.07,5.18-13.71,11.59-16.78,3.04-1.45,6.43-2.12,9.79-2.04,4.27.09,8.54,1.39,12.05,3.83,5.25,3.65,8.62,9.86,8.83,16.25,0,.14,0,.29,0,.43ZM443.88,635c0-10.41-11.67-16.62-20.22-10.27-4.93,3.67-6.65,11.05-3.85,16.53,6.32,12.33,24.06,7.08,24.07-6.26ZM965.9,654.5c.3-.9-.6-2.7-2-4-2.3-2.4-3.2-2.5-12-2.5h-9.5c0-27.2-.3-31.9-1.2-32.8-.7-.7-2-1.3-2.8-1.3-.9,0-2.2.6-3,1.3-1.1.9-1.4,5-1.2,21l.2,19.8c28.4,0,31.1-.3,31.5-1.5ZM1000.4,656l-.5-41.5c-4.7-.5-6.5-.3-7,.1-.4.4-.8,9.8-.7,21l.2,20.4h8ZM1273.4,469.7c-10.2-.4-30.7-1.2-45.5-1.7-27.54-1.12-329.5-12.71-329.5-13,0-.6-5.9-1-15.8-1h-15.7c-1.8,4.3-3.3,5.8-4.4,6.2-1.5.6-2.8.2-4.4-1.2-1.2-1.1-2.5-2-3-2-.4,0-2.2,1.6-4,3.5-1.7,1.9-4,3.5-5,3.5-.9,0-1.9-.5-2.2-1-.33-.67-1.17-.67-2.5,0-1.5.7-2.4.6-3.5-.5-.8-.8-2.4-1.5-3.5-1.5-1.33,0-2-.67-2-2,0-1.1-.7-2.2-1.5-2.5s-1.7-1.4-2-2.5c-.9-3.31-10.43-1.95-12.63-1.98-10.35-.12-20.69-.59-30.99-1.53-9.34-.84-17.56.01-16.09-11.59,1.85-14.66,1.3-29.5.49-44.25-.84-15.22-2.04-30.79-8.32-44.68-6.27-13.89-18.68-25.97-33.82-27.67-12.58-1.41-24.85,4.36-35.51,11.19-9.6,6.15-18.55,13.3-26.7,21.29-4.37,4.28-18.79,13.48-17.62,20.48,14.34-8.63,28.48-21.3,45.12-19.52,11.2,1.19,20.84,9.16,26.51,18.89s7.9,21.06,9.21,32.24c.61,5.18,3.45,61.13-1.15,61.13-.5,0-1,.6-1,1.2-.1.7.7,2.1,1.7,3,1.7,1.7,14.6,1.8,243.3,1.4,132.8-.3,242.8-.4,244.5-.4,1.7.1,10.7.1,20,.1s25.2-.3,35.2-.7c10.1-.3,18.9-.9,19.5-1.4.7-.4-7-1-17.2-1.5ZM898.4,621.7c9.3-.2,9.5-.3,9.8-2.7.2-1.6-.3-3-1.5-3.8-1.2-.9-5.7-1.3-13.8-1.3-8,.1-12.6.5-13.5,1.3-1.1.9-1.4,5-1.2,21l.2,19.8h8c0-14.2.3-15.2,2.3-16.6,1.3-.9,4.5-1.5,8-1.5,5.7.1,5.7,0,5.7-2.9v-3c-10.7,0-12.4-.5-14-2-1.1-1.1-2-2.6-2-3.3s.5-2,1.2-3c1-1.4,3.2-1.7,10.8-2ZM1040.4,614c5.7,0,10.2.4,10.5,1,.3.5,1.8,1,3.5,1,2,0,3.83.9,5.5,2.7,1.6,1.9,2.4,4,2.5,6.5,0,2.1-.7,5.2-1.6,7s-2.4,3.7-3.3,4.2c-.9.6-4.1,1.6-7.1,2.2-3,.7-7.1,1.2-9,1.3-3.1,0-3.6.4-4.3,3.3-.4,1.8-.7,4.5-.7,6s.5,2.8,1,2.8c.6,0,.5.8-.2,2-1,1.5-2.2,2-8.3,1.5l-.4-18.8c-.3-13.1,0-19.4.8-20.8,1-1.7,2.3-1.9,11.1-1.9ZM1037.8,628.8c.4,1.6,1.4,2.2,3.3,2.3,1.5,0,3.7.2,4.8.4,1.1.3,3.4-.2,5.2-1,2.1-1,3.3-2.2,3.3-3.5,0-1.1-1-2.7-2.3-3.5-1.3-.9-4.5-1.5-8-1.5-5.1,0-5.8.3-6.3,2.3-.3,1.2-.3,3.2,0,4.5ZM720.01,619.24c.44-1.29.98-2.53,1.89-3.44,1-1,2.6-1.8,3.6-1.8,4.51,0,6.71,5.7,8.08,9.1,3.46,8.65,6.93,17.3,10.39,25.94.38.94.76,1.9,1.4,2.69,1,1.23,1.62,2.8-.11,3.88-.97.6-2.18.61-3.31.49-2.79-.27-3.26-1.54-4.55-3.6-1.16-1.85-3.63-2.28-5.8-2.43-4.2-.3-8.43-.25-12.62.16-1.68.16-3.69.76-4.27,2.55-.2.64-.2,1.33-.43,1.96-.56,1.52-2.58,1.26-3.87,1.26-5.15,0-3.22-3.3-1.91-6.64,0-2.36,2.37-6.06,3.24-8.29,1.22-3.13,2.45-6.26,3.67-9.4,1.15-2.95,2.3-5.9,3.46-8.84.43-1.1.74-2.37,1.15-3.59ZM721.17,640.63c.3.53.83.9,1.66,1.06,2.11.39,4.28.44,6.4.15.85-.12,1.73-.31,2.37-.88s.93-1.62.41-2.29c-.27-.35-.69-.54-.99-.86-.85-.92-.37-2.42-.72-3.63-.33-1.14-1.38-1.95-1.74-3.08-.2-.63-.18-1.32-.39-1.94-.97-2.9-3.57-.3-4.12,1.22-.74,2.02-4.29,7.8-2.88,10.26ZM801.4,638.5c-.5.2-5.7-4.3-11.5-10-5.8-5.8-11.5-11.2-12.7-12.1-2.2-1.4-2.4-1.3-3.6,1.3-.9,2-1.2,7.7-1,20.3l.3,17.5c6.7.4,7.5.1,7.6-1.3,0-1,.2-6,.4-11.2.2-5.3.4-9.9.4-10.3.1-.4.4-.7.9-.7.4,0,6.2,5.4,13,12,6.7,6.6,12.9,12,13.7,12,1.3,0,1.5-2.9,1.5-19.5s-.3-19.8-1.5-21c-.8-.9-1.6-1.5-1.7-1.5-.2.1-1.4.5-2.7,1h0c-2.4.9-2.5,1.1-2.3,11.9.1,6.6-.2,11.3-.8,11.6Z"/>
  <path fill="#f8f8f8" d="M172.9,499l-5,4.8c-2.8,2.6-7.4,6.7-10.3,9.2l-5.3,4.5c-7,24-9.8,33.7-10.6,37-.9,3.3-2.1,7.1-2.8,8.5-.7,1.4-1.5,4.3-1.9,6.5-.4,2.2-2.1,8.5-3.7,14-1.7,5.5-2.8,10.6-2.5,11.2.4.9,2.5.1,7.1-2.7,3.6-2.2,6.7-4,7-4s2.7-1.5,5.5-3.3c4.9-3.1,5-3.4,7.1-11.7,1.1-4.7,2.7-10,3.5-11.8l1.4-3.2c30.6,0,39.8.3,40.2.7.3.4,0,3.3-.8,6.3-.9,3-2.2,7.4-3,9.7-.8,2.4-1.4,5-1.4,5.8,0,1.2,1.8,1.5,10.3,1.5h10.2c6-20.5,8.9-31,10.4-36.5s3-10.5,3.3-11c.4-.5,1.6-4.5,2.7-8.8l2.1-7.7-10-19h-53.5ZM214.1,521.2c-.4,1.8-1.7,6.6-5.2,17.8h-20c-11,0-20.3-.3-20.7-.7s-.3-1.9.2-3.3c.4-1.4,1.8-5.8,2.9-9.7l2.1-7.3h41.5l-.8,3.2ZM282.9,541.8c.3-.7-.8-10.2-2.4-21.2-1.6-11-2.6-20.4-2.2-20.8.3-.4,5.1-.6,20.6-.2l.7,4c.4,2.2,1,5.6,1.3,7.7s.8,3.8,1.3,3.8c.4,0,2.5-2.5,4.7-5.6s4.8-6.7,5.8-8c1.6-2.3,2.3-2.4,11.7-2.4,5.7,0,10.2.4,10.5,1,.3.5-.5,2.2-1.8,3.7-1.2,1.5-7.8,10.4-27,36.8l.7,6c.3,3.3,1,6.3,1.4,6.8.4.4,10-11.6,42.2-54.3h10c7.3,0,10,.3,10,1.2.1.7-.9,2.2-2,3.3s-2.1,2.4-2.1,3c0,.5-1.2,2.4-2.7,4.1s-3.4,4.1-4.2,5.2c-.8,1.1-5.3,7.3-10,13.7-4.7,6.5-15.2,20.8-38.5,52l-20.5.5-1-3.8c-.5-2.1-1-4.9-1-6.2,0-1.4-.3-3.1-.8-3.8-.5-.9-1.2-.7-2.8,1-1.1,1.2-3.7,4.6-9.4,12.8h-20.5l-1.2-7.8c-.7-4.2-2.4-14.7-3.7-23.2-1.4-8.6-3.6-22.6-5-31.3-1.4-8.7-2.6-16.9-2.6-18.2v-2.5h10.5c5.8,0,10.5.3,10.5.7s1,6.4,2.1,13.3c1.1,6.8,3,18.7,4.2,26.4,1.2,7.6,2.7,14,3.2,14.2.6.1,2.9-2.2,5.3-5.2,2.3-3,4.4-6,4.7-6.7ZM81.8,553.5c-1.3,4.4-2.4,8.3-2.4,8.7,0,.5,12.8.8,28.5.8s28.7.3,29,.7c.2.5-2.4,3.3-5.8,6.5-3.4,3.1-7.8,7-13.2,11.8h-32.2c-30.1,0-32.3-.1-32.3-1.8,0-.9.8-4.4,1.9-7.7,1.1-3.3,2.9-9.4,3.9-13.5,1.1-4.1,5.2-18.5,9.1-32,3.9-13.5,7.5-25.4,7.9-26.5.5-1.1,3.8-3.5,7.3-5.4,3.5-1.9,8.4-4.7,10.9-6.3h0c2.5-1.5,4.8-2.8,5.2-2.8.5,0,.6,1.5.4,3.2-.2,1.8-1.5,7.3-3,12.3s-3.5,11.9-4.5,15.5c-1.1,3.6-3.3,11.5-5.1,17.5-1.7,6-4.3,14.6-5.6,19ZM385.7,521.3c-3,3.1-3.1,3.4-.3,9.8h52.5l3.2,10.2c1.8,5.6,3.5,11.6,3.9,13.3.5,2.6-.2,3.8-7.1,11.5-4.3,4.6-9.3,10.1-14.5,16h-39c-30.5,0-39-.3-39-1.3,0-.7,1.3-2.3,2.8-3.6,1.5-1.2,5.5-5,15.2-14.1l53.5-.1,2.8-2.7c1.5-1.5,2.8-3.6,2.8-4.7-.1-1.1-.7-2.9-1.5-4-1.4-2-2.4-2-26.8-1.8-13.9.2-25.8,0-26.3-.5-.6-.4-2.7-5.7-4.7-11.7-2.1-6.1-3.8-11.6-3.9-12.2,0-.7,2.3-3.8,5.3-7,2.9-3.2,8.2-8.9,11.7-12.6l6.4-6.7h39.4c21.6,0,39.3.1,39.3.2.1.1-.7,1.2-1.7,2.3-1,1.1-5.4,5.2-17.8,16.4h-53l-3.2,3.3ZM771,241.9c-.1-6.9.1-7.9,2.9-11.4,1.7-2.1,4.3-4.4,6-5.1,2.1-.9,4.1-1,6.5-.4,1.9.5,4.4,1.8,5.5,3,1.1,1.2,4,3.1,6.3,4.3,3.8,1.9,4.5,2,5.3.7.5-.8.9-2.4.9-3.5s.8-3.1,1.7-4.5c.9-1.4,2.4-3,3.3-3.7.8-.7,2.5-1.3,3.8-1.3,1.2,0,2.4.4,2.7,1,.3.6-1.1,2.8-3,5-1.9,2.2-3.5,5-3.5,6.3.1,1.3,1.7,3.7,4.3,6,2.3,2.1,4.9,3.7,5.7,3.7,1.3,0,1.4-1,.7-6.7-.8-6.5-.7-7,2.2-11.3,2.1-3,3.3-6.3,3.7-10,.4-3,2-8.2,3.6-11.5,1.7-3.3,3.8-6.5,4.7-7.1.9-.6,2.2-2.6,3-4.5.7-1.9,2.4-6.1,3.8-9.4s3.2-7.6,4.1-9.5c.8-1.9,3-5.5,4.7-8,1.7-2.5,5.1-7.9,7.4-12,2.4-4.1,5.3-9.1,6.6-11,1.2-1.9,4.1-6.9,6.5-11,2.4-4.1,6.1-10.3,8.2-13.7,2.1-3.5,3.8-6.5,3.8-6.8s.5-1.1,1-1.7c.6-.7,2.9-4.5,5.2-8.3s4.7-8.3,5.4-10c.7-1.7,1.8-5.9,2.4-9.5.7-3.6,1.5-11.2,1.9-17,.5-6.1,1.4-11.4,2.2-12.7q1.4-2.2,2.7,1c.7,1.8,1.1,5.1,1,7.4-.2,2.3,0,4.4.5,4.7.4.3,3.5-3.7,7-9,4-6.1,6.7-9.4,7.7-9.2.8.2,1.6,1.3,1.8,2.6.1,1.2-.5,3.5-1.3,5.2-.8,1.7-1.4,3-1.2,3,.1.1,2.4-2.6,5-5.9h0c3-3.8,5.3-5.8,6.2-5.4.8.3,1.4,1,1.4,1.7,0,.6-1.9,4.6-4.2,8.8-2.3,4.3-3.9,8.1-3.4,8.5.4.5,3.2-1.7,6.2-4.7,4.6-4.6,5.6-5.3,6.9-4.3,1.1.9,1.3,1.8.7,3-.5,1-2.3,3.4-4.1,5.3-1.7,1.9-5.5,5.8-8.3,8.7-4.7,4.7-5,5.4-3.7,6.8.8.9,2.1,1.6,2.8,1.5.6,0,3-1.5,5.3-3.3,3.4-2.7,4.2-3,4.9-1.7.6,1,.27,2.5-1,4.5-1,1.7-2.5,3.3-3.2,3.7-.7.3-3.8,1.6-6.8,2.8-3,1.2-7.9,3.6-10.7,5.3-4.6,2.8-5.7,4.1-8.4,10.2-1.7,3.8-4.7,10.3-6.5,14.2-1.9,4-3.4,7.5-3.4,7.8s-2.1,4.9-4.6,10.2c-2.5,5.4-6.1,12-8,14.8-1.8,2.7-3.4,5.6-3.4,6.2,0,.7-1.6,6.1-3.6,12-2,6-5.6,16-8.1,22.3-2.5,6.3-6.3,15-8.4,19.2-2.8,5.6-3.9,9.1-3.9,12.3,0,2.5.9,6.4,1.9,8.7,1.1,2.4,2.6,4.9,3.3,5.6.87.87,2.97,1.13,6.3.8,2.8-.3,7.1-.8,9.8-1.1,4.4-.5,4.9-.3,8.5,3.3,2,2,4.5,5.2,5.5,7,1.3,2.4,3.7,4.1,9.5,6.9,6.8,3.2,8.9,3.7,17.2,4.1,8,.4,10.7.2,17-1.8,4.1-1.3,8-2.6,8.5-3,.5-.4,4.4-1.8,8.5-3.1,6.7-2.1,9.2-2.4,24-2.4,15.7.1,17.1.2,27.5,3.3,6,1.8,13.5,4.5,16.5,5.9,3.3,1.6,8.3,5.4,12.6,9.7,5,5.1,7.2,8.1,7.7,10.6.4,1.9.7,5.1.7,7,.1,1.9-.7,4.5-1.7,5.7s-4,2.9-6.8,3.8c-2.8.9-8.7,1.5-13.5,1.5s-10.9.4-13.8.8c-2.9.4-5.2,1.1-5.2,1.7s3.9,2.9,8.7,5.2c4.9,2.3,11.3,5.2,14.3,6.6,3,1.3,10,3.8,15.5,5.5,5.5,1.8,16.3,4.6,24,6.2,7.7,1.7,19.4,4.9,26,7,6.6,2.1,16.7,4.6,22.5,5.5,5.8.9,14.3,2.5,19,3.6,4.7,1.1,11.7,2.9,15.5,4.1,5.8,1.7,8.5,2,16,1.5,6.2-.5,10.9-.2,15,.7,3.3.8,10.5,2.6,16,4.1,6.1,1.6,10.9,3.5,12.2,4.8,1.3,1.2,2.5,3.2,2.8,4.4.3,1.3-.6,4.7-2,7.8-1.4,3-3.5,6.2-4.7,7-1.9,1.3-3.1,1.4-6.5.5-2.6-.6-6.4-2.8-9.5-5.5-3.7-3.1-7.4-5.1-12.3-6.6-3.8-1.2-9-2.4-11.5-2.6-2.5-.3-10.6.2-18,1.1-7.4.9-17.1,1.6-21.5,1.6-5.5,0-11.8-1-20.5-3.1-6.9-1.7-13.4-3.6-14.5-4.1-1.1-.6-7.8-2.4-15-4-10.9-2.4-16.7-3-35.5-3.8-12.4-.5-27-1.6-32.5-2.4-5.5-.9-10.7-1.7-11.5-2s-6.4-1.2-12.5-2.1c-6-.8-15-2.3-20-3.1-4.9-.9-12-2.2-15.7-3-3.8-.8-8-2.3-9.5-3.4-1.6-1.1-6-3.1-9.8-4.5-4.5-1.6-11-2.8-18.2-3.5-10.1-.9-11.6-.8-14.4.7-1.7,1-4.3,2.4-5.8,3.2-1.5.9-5.1,1.4-8.6,1.4-3.6-.1-8.4-1-12-2.3-3.3-1.3-8-2.3-10.5-2.3s-5.1.3-5.7.6c-.7.4-1.3,1.8-1.3,3.2s1.8,9.6,4,18.2c2.1,8.7,4.9,20.5,6,26.3,2,9.6,2.1,12.4,1.4,34-.5,17.2-.3,26.3.6,34,1.3,9.7,1.6,10.8,4.7,14,1.8,1.9,3.3,4.2,3.3,5s-.6,2.2-1.3,3.1c-.7.8-2,1.8-2.9,2.2-1.2.4-2.6,0-4-1.3-1.3-1.1-2.6-2-3-2-.5,0-2.3,1.6-4,3.5-1.8,1.9-4.1,3.5-5,3.5-1,0-2-.5-2.3-1-.33-.67-1.17-.67-2.5,0-1.5.7-2.4.6-3.5-.5-.8-.8-2.4-1.5-3.5-1.5-1.33,0-2-.67-2-2,0-1.1-.7-2.2-1.5-2.5s-1.5-1.3-1.5-2.3c0-1.1,2.5-2.9,14.5-9l-.3-10.9c-.2-6.8-1-13.2-2.2-17.3-1-3.6-2.3-9.6-2.9-13.5s-1.3-10.6-1.6-15c-.3-4.4-1-13.2-1.6-19.5s-1.8-14.6-2.9-18.5c-1-3.9-3.8-11.1-10.5-25l.3-10.8c.1-5.9-.1-10.7-.5-10.7-.5-.1-1.5.6-2.3,1.5-.8.9-3,1.6-4.7,1.5-1.9,0-5.1-1.2-7.5-2.9-2.4-1.5-6.9-4.6-10.2-6.7-3.2-2.1-8.4-6.7-11.5-10.1-3.1-3.3-6.3-7.6-7.2-9.5-.9-1.8-2.4-5.1-3.2-7.3-.9-2.2-2.2-7.8-2.8-12.5-.7-4.7-1.3-11.9-1.3-16.1ZM575,747.3c-1.1.6-2.2,1.4-2.5,1.8-.3.4-3.5,1.9-7.2,3.3-4.4,1.7-8.8,2.6-12.5,2.6-3.9,0-7.4-.8-10.8-2.3-2.8-1.4-6.8-4.5-9.3-7.3-2.4-2.7-5-6-5.7-7.4s-2.4-5.9-3.8-10c-1.3-4.1-2.7-8.6-3-10s-1.3-7.4-2.1-13.5c-.9-6-1.6-13.1-1.6-20.5h-5.2c-2.9,0-25.5-.7-50.3-1.5-24.7-.8-68.8-2.1-98-2.9-29.1-.9-73.2-2-98-2.6-24.7-.5-48.6-1.2-53-1.5s-15-.7-23.5-1c-8.5-.2-34.8-.9-58.5-1.5-23.6-.6-55.1-1.6-70-2.2-14.8-.5-34.4-1.3-60-2.3l18-.5h0c9.9-.3,129.6-.5,514-.5l.1,11.5c.1,6.3.4,15.1.8,19.5s1.4,10.9,2.2,14.5c.8,3.6,3,9.7,4.9,13.5,1.8,3.9,5.4,9.1,7.9,11.8,2.5,2.6,5.9,5,7.4,5.3,1.5.4,3.2,1.1,3.7,1.5.6.5,4.8.9,9.5,1,6.7.1,8.1.3,6.5,1.2ZM687.9,378.6c-6,0-8.1.5-15,3.8-4.4,2.1-11.6,6.6-16,10.1-4.4,3.4-11.4,9.8-15.5,14.1-4.1,4.4-9.1,9.7-11.1,11.9-1.9,2.2-7.7,9.6-12.9,16.5-5.1,6.9-12.9,17.9-25.1,36.5l-34.7.5c-19.1.3-142.5.5-274.2.4-179.5,0-240-.3-241.5-1.2-1.6-.9,1.4-1.1,14-1.2,8.8,0,23-.4,31.5-1,8.5-.5,43.2-1.7,77-2.5,33.8-.9,75.9-2,93.5-2.5s55.2-1.6,83.5-2.4,75.4-2,104.5-2.6c29.2-.6,62.9-1.5,75-2s31.7-1.2,43.5-1.5c13.6-.4,22.3-1,23.8-1.8,1.2-.7,2.2-1.5,2.2-2,0-.4,3.5-6,7.8-12.5,4.3-6.4,9.2-13.5,10.8-15.8s5.8-7.9,9.3-12.5c3.5-4.6,11.2-13.1,17-18.9,8.3-8.2,12.9-11.8,21.1-16.6,5.8-3.4,13.2-7.1,16.5-8.3h0c4.7-1.6,7.7-2.1,13.5-1.8,5.9.3,8.3.9,11.5,2.9,2.2,1.4,5.5,4.1,7.3,6.1,1.7,2.1,4.3,6.2,5.7,9.2s2.5,6.2,2.5,7c0,.9-2-.3-5.3-3.3-2.9-2.6-7-5.6-9.2-6.6-2.8-1.4-6.1-2-11-2ZM323.7,15c-.9-1.4-1.3-3.3-1-4.2.4-1,1.9-2.1,3.4-2.5,1.9-.4,5.3.2,10.3,2,4.1,1.5,8.1,2.7,8.7,2.7.7,0,3.3-2.9,5.8-6.5h0c3.3-4.7,5.2-6.5,6.8-6.5,1.2,0,3.7,1,5.4,2.3,2.8,1.9,3.3,2.9,3.5,6.7.1,2.5.2,10.8.3,18.5.1,12.7.3,14.4,2.4,18.5,1.3,2.5,4.7,7,7.5,10,2.9,3,7.2,8,9.7,11s6.6,8.2,9.1,11.5c2.5,3.3,7.2,9,10.4,12.6,3.3,3.6,7.4,9.7,9.3,13.5,1.8,3.8,4,9,4.7,11.7.9,2.9,4.4,8.6,9.1,15,4.2,5.6,8.6,11,9.8,12,1.1,1,4.4,4.1,7.3,7,3,2.9,8.3,9.7,11.9,15.2s7.7,11.8,9.1,14,3.3,5.1,4.2,6.5c.9,1.4,3.7,6.6,6.2,11.5,2.4,4.9,5.4,11.5,6.6,14.5s4,12.9,6.3,22c2.7,10.9,5.9,20.8,9.5,29,3,6.9,7,14.8,8.8,17.5,1.9,2.8,5.7,7.5,13.4,16l4-4.5c2.2-2.5,5.7-5.4,7.8-6.5,2.2-1.1,5-3,6.4-4.3s3.9-3,5.5-3.9c2.3-1.1,3.5-1.2,5.2-.4,1.3.6,3.4,2.6,4.7,4.4,1.4,1.8,2.9,5.9,3.5,9.2s1.1,10.1,1.1,15c-.1,4.9-.5,11-1,13.5-.6,3.4-.4,6.4,1,12,1.4,5.7,1.6,8.5.9,11.8-.5,2.3-1.5,5.4-2.3,7-.8,1.5-3.2,4.3-5.3,6.3s-5.6,4.6-7.8,5.9-6,2.9-8.4,3.4c-2.4.6-4.9,1.8-5.5,2.8-.9,1.3-.5,2.1,2.3,4.5,1.9,1.5,5.3,4.7,7.5,7.1,2.3,2.4,6.2,8,8.7,12.5s5.8,10,7.3,12.2c2,3,2.7,5.2,2.7,9-.1,2.8-.7,6.9-1.6,9.3-.8,2.3-2.7,5.8-4.3,7.9-1.5,2-4.4,4.7-6.5,6-2,1.2-6.3,3-9.4,3.8-4.5,1.2-7,1.3-11.3.5-3-.6-7.3-2.3-9.5-3.8s-5-4.4-6.3-6.3c-1.3-1.8-2.7-5-3.3-6.9-.5-1.9-1.4-7.8-2-13-.5-5.2-1.2-11.7-1.4-14.5-.3-3-1.3-5.9-2.5-7.2-1.5-1.7-3.1-2.3-6.3-2.3-2.3,0-6.9.8-10.2,1.7s-10,1.6-15,1.7c-8.1.1-9.6-.2-15.5-3.1-3.6-1.7-8.2-5-10.3-7.2-2-2.3-5.2-6.6-7-9.7-2.1-3.8-4.5-6.4-7.2-8-2.2-1.2-6-4.5-8.5-7.2s-7-8.2-10-12.1c-3-3.9-5.8-8.1-6.2-9.4-.3-1.2-.6-3.9-.7-5.9-.1-2.7.6-4.7,2.4-6.8,1.8-2.1,3.9-3.3,7.2-3.9,3.2-.67,6.47-.63,9.8.1,2.7.6,6.8,2.2,9,3.4s4.9,3.2,6,4.4c1.1,1.1,2.3,2.1,2.7,2,.5,0,.8-1.5.8-3.2-.1-1.8-.7-6.7-1.4-10.8-1.1-6-2.3-9-6.2-15-2.7-4.1-6.5-11.5-8.4-16.4-2.6-6.4-5-10.5-8.9-15-3-3.3-6.6-7.9-7.9-10.1-1.4-2.2-3.4-5.6-4.5-7.5-1.1-1.9-3.9-8.7-6.4-15-2.4-6.3-4.7-14-5.2-17s-1.8-7.7-3-10.5c-1.2-2.7-3.1-8.4-4.2-12.5-1.2-4.1-2.7-10-3.4-13s-2.5-11.6-4-19c-2.5-12.4-3.1-13.8-6.4-17.5-2-2.2-4.8-7.1-6.3-11-1.4-3.8-3.7-10.8-5.2-15.5-1.4-4.7-4.1-15.7-6-24.5-1.9-8.8-4.1-19.8-4.8-24.5-.9-5.9-1.9-9.3-3.4-11-1.2-1.4-2.7-5-3.3-8-.7-3.8-2.4-7.3-5.5-11.5-2.5-3.3-5.4-7.1-6.4-8.5-1.1-1.4-3.1-4.7-4.6-7.5-1.5-2.7-3.4-6.1-4.3-7.5ZM1110.5,530c1-3.6,2.2-7.6,2.7-9,.8-2,.4-3.7-2-8.5-1.7-3.3-4.1-7.7-5.4-9.7l-2.4-3.8h-58.1l-5.1,4.8c-2.9,2.6-7.6,7-10.5,9.7-3.8,3.5-5.7,6.2-6.4,9-.6,2.2-2.1,7.6-3.4,12s-3.7,12.6-5.4,18.3l-3.1,10.2,9.5,18.5c45.4.4,59.2.2,59.9-.2.8-.5,5.4-4.4,10.2-8.8,4.8-4.4,9-8.2,9.4-8.5.5-.3,2.5-6.6,4.5-14,2.1-7.4,4.6-16.4,5.6-20ZM1089.9,527.8c-1.3,4.8-3.8,13.5-5.4,19.3-1.6,5.7-3.4,11.7-5.1,16h-23c-17.7,0-23-.3-23-1.3,0-.7,1.1-4.8,2.4-9.2s3.5-12.1,4.9-17c1.5-5,3.1-11,3.7-13.3l1.1-4.2h23.4c12.9,0,23.5.2,23.5.5,0,.2-1.1,4.4-2.5,9.2ZM1014.4,520.5c-1,3.9-3.2,11.7-4.9,17.5-1.6,5.8-3.4,11.9-4,13.5-.6,1.7-2.9,9.3-5.1,17-2.3,7.7-4.2,14.1-4.3,14.1-.1.1-5,2.9-10.9,6.3-5.9,3.3-11.2,6.1-11.8,6.1-.5,0-1-.6-.9-1.2,0-.7,1.3-5.8,2.8-11.3,1.6-5.5,4.5-15.6,6.6-22.5,2-6.9,5.1-17.2,6.7-23,1.7-5.8,3.8-13.4,4.9-17,1-3.6,2.7-9.6,3.9-13.5,1.1-3.8,2-7.1,2-7.2h0c0-.2,4.4-.3,9.8-.3s10,.3,10.4.7c.4.5-.2,3.7-1.3,7.3s-2.8,9.7-3.9,13.5ZM973.9,518.1l-20.5-.1-2.4,8.3c-1.4,4.5-4.5,15.4-7.1,24.2-2.6,8.8-5.6,19.4-6.8,23.6-1.2,4.2-2.4,7.9-2.7,8.1-.2.2-2.4,1.6-4.7,3.1-2.4,1.5-4.5,2.7-4.8,2.7-.2,0-3.3,1.6-6.7,3.6-3.5,2-6.6,3.2-7,2.8-.4-.5,0-3.4.9-6.4s2.8-10,4.3-15.5c1.6-5.5,4.9-17.2,7.4-26s5-17.3,5.5-19c.5-1.6,1.2-4.5,2.1-9.5h-20l-4.5-9c-2.4-4.9-4.5-9.2-4.5-9.5,0-.3,20.3-.5,45-.5,35.3,0,45,.3,45.1,1.3,0,.6-1.5,2.4-3.3,3.9s-6,5.2-15.3,13.9ZM1214.9,501.3c-.4,1.2-1.7,6.1-3,10.8-1.2,4.6-3.1,11.6-4.2,15.5-1.1,3.8-4.3,14.8-7.1,24.5-2.9,9.6-5.9,19.9-6.7,23-.8,3-1.7,5.8-1.9,6.2-.3.4-4.2.7-17,.7l-3.1-4.2c-1.7-2.3-8.5-11.9-15.1-21.2-6.6-9.4-12.6-18.1-13.4-19.3-.8-1.2-1.7-2.2-2.1-2.2s-1,.5-1.2,1.2-1.4,4.6-2.6,8.8c-1.2,4.1-3.2,11.1-4.5,15.5s-3.2,11.1-4.4,15c-1.4,5-2.6,7.3-4.3,8.2-1.2.7-5,2.8-8.3,4.7-3.3,2-7.4,4.4-9.2,5.3-1.8,1-3.6,1.4-4,1-.4-.5.3-4.5,1.6-9,1.4-4.5,3.2-10.7,4.2-13.7.9-3.1,2.4-8,3.2-11,.9-3.1,3-10.5,4.7-16.5,1.7-6.1,4.4-15.3,6-20.5,1.6-5.3,3.8-13,5.1-17.3l2.2-7.7,15.2-.1,4.5,6.4c2.5,3.5,10.1,14.3,17,24s12.9,17.5,13.4,17.4c.5-.1,1.3-1.6,1.8-3.2.5-1.7,1.5-5.1,2.3-7.5.7-2.5,2.8-9.5,4.5-15.5,1.8-6.1,3.9-13.4,6.5-21.6h10.3c10.1.1,10.2.1,9.6,2.3ZM835.5,499.1l-4.3,3.7c-2.3,2.1-6.2,5.6-8.7,8-2.5,2.3-5.3,4.7-6.2,5.5-1,.7-3.2,6-4.9,11.8-1.7,5.7-4.7,15.9-6.6,22.5s-3.3,12.9-3,14,2.2,4.7,4.2,8c1.9,3.3,3.7,6.7,4,7.7.4,1.6,2.8,1.8,30.2,1.8h29.8c5.4-4.8,9.87-8.77,13.4-11.9,3.5-3.1,7-7.2,7.8-9.1.7-2,2.3-7,3.3-11.3,1.1-4.3,2.4-8.5,2.9-9.5.6-1,2.2-6.5,3.7-12.2l2.6-10.5-10.2-18.5h-58ZM878.2,533.1c-2.2,7.4-5,17.2-6.4,21.7-1.3,4.6-3,8.3-3.6,8.3-.7,0-11.2,0-23.3-.1-12.1,0-22.1-.1-22.2-.3-.1-.1.5-2.4,1.3-5.1.9-2.8,2.4-8.4,3.5-12.5,1.1-4.2,3.1-11.4,4.6-16,1.4-4.7,2.7-9.1,2.9-9.8h0c.3-1,5.8-1.2,23.4-1.2,12.6,0,23.2.3,23.4.7.2.4-1.4,6.8-3.6,14.3ZM803.3,522.5c-1.6,6.1-4.6,16.4-6.5,23s-4.2,14.5-5,17.5-1.9,6.6-2.4,8-1.4,4.4-3,11h-21l.6-2.7c.3-1.6,1.2-4.8,2-7.3s3.4-11.6,5.9-20.2c2.5-8.7,4.5-16.5,4.5-17.3s-.3-1.5-.7-1.4c-.4,0-5.7,5.7-11.8,12.6-6,6.9-13.9,15.7-24,26.4h-6.5c-6.1,0-6.5-.2-7.7-2.8-.6-1.5-3.2-9.5-5.8-17.8-2.5-8.2-5.1-16.1-5.6-17.5q-1.1-2.5-2.6,1.5c-.8,2.2-2.5,7.8-3.8,12.5s-3.8,13.5-5.5,19.5c-1.7,6.1-3.6,12.1-4.3,13.4-.6,1.2-3.9,3.8-7.2,5.7-3.3,1.8-8.6,4.7-17.5,9.4l.4-2.7c.3-1.6,1.6-6.4,2.9-10.8,1.4-4.4,3.8-12.3,5.3-17.5s3.8-13.3,5.1-18c1.4-4.7,3.1-11,4-14,.8-3,3.1-10.7,5-17,2-6.3,3.8-12.7,4.1-14.2l.4-2.8h11.9c8.7,0,12,.4,12.3,1.3.3.6,3,9.1,6.1,18.7,3,9.6,5.6,18,5.5,18.5,0,.6.8,2.9,1.8,5.3.9,2.3,2.2,4.2,2.7,4.1.6,0,3.5-2.9,6.5-6.3s8.9-9.9,13-14.5,8-8.9,8.5-9.5c.6-.6,4.4-4.8,16-17.7l11.3.1c8.3,0,11.2.3,11.2,1.3,0,.6-.7,3.5-1.5,6.2-.8,2.8-2.9,10-4.6,16ZM902.4,499.5h0s0,0,0,0Z"/>
  </svg>